<svg width="164" height="65" viewBox="0 0 164 65" fill="none" xmlns="http://www.w3.org/2000/svg">
<path d="M125.353 14.8346L122.641 14.8346C121.991 14.8346 121.464 15.3617 121.464 16.0117L121.464 37.3117C121.464 37.9617 121.991 38.4887 122.641 38.4887L125.353 38.4888C125.665 38.4888 125.964 38.3648 126.185 38.1441C126.406 37.9233 126.53 37.6239 126.53 37.3118L126.53 16.0118C126.53 15.3616 126.003 14.8346 125.353 14.8346Z" fill="#A44E3F"/>
<path d="M125.353 38.4888C125.665 38.4888 125.965 38.3648 126.185 38.1441C126.406 37.9234 126.53 37.624 126.53 37.3118L126.53 16.0118C126.53 15.3618 126.003 14.8348 125.353 14.8348L124.085 14.8348L124.085 38.4888L125.353 38.4888Z" fill="#87363E"/>
<path d="M131.912 35.3027L125.261 35.3027L124.084 36.4797L122.907 35.3027L116.256 35.3027C115.606 35.3025 115.079 35.8296 115.079 36.4797L115.079 43.5924C115.079 46.8798 116.594 49.7628 119.46 51.9301C121.561 53.5184 123.655 54.1628 123.743 54.1895C123.965 54.2567 124.203 54.2567 124.425 54.1895C124.513 54.1629 126.607 53.5184 128.708 51.93C129.195 51.5614 129.644 51.1722 130.052 50.7637C132.045 48.7705 133.089 46.3206 133.089 43.5924L133.089 36.4797C133.089 36.1676 132.965 35.8681 132.744 35.6474C132.523 35.4267 132.224 35.3027 131.912 35.3027Z" fill="#EBF0FA"/>
<path d="M124.425 54.1894C124.513 54.1627 126.607 53.5183 128.708 51.9299C129.195 51.5612 129.644 51.1721 130.052 50.7636C132.045 48.7704 133.089 46.3205 133.089 43.5923L133.089 36.4797C133.089 36.1675 132.965 35.8681 132.744 35.6474C132.523 35.4266 132.224 35.3026 131.912 35.3027L125.261 35.3027L124.085 36.479L124.085 54.2397C124.2 54.2397 124.314 54.2229 124.425 54.1894Z" fill="#DCE1EB"/>
<path d="M130.41 8.07736L117.584 8.07742L117.584 11.2212C117.584 13.4074 119.357 15.1796 121.543 15.1796L126.452 15.1796C128.638 15.1796 130.41 13.4074 130.41 11.2212L130.41 8.07736Z" fill="white"/>
<path d="M130.083 14.8524C129.113 15.8223 127.823 16.3565 126.451 16.3565L121.543 16.3565C120.171 16.3565 118.881 15.8223 117.911 14.8524C116.942 13.8825 116.407 12.5928 116.407 11.2211L116.407 8.07735C116.407 7.42738 116.934 6.90036 117.584 6.90031L130.41 6.90031C131.06 6.90025 131.587 7.42727 131.587 8.07735L131.587 11.2211C131.587 12.5929 131.053 13.8825 130.083 14.8524ZM118.761 9.25439L118.761 11.2212C118.761 11.964 119.051 12.6626 119.576 13.1879C120.101 13.7132 120.8 14.0024 121.543 14.0025L126.451 14.0025C127.194 14.0024 127.893 13.7132 128.418 13.1879C128.943 12.6626 129.233 11.9641 129.233 11.2212L129.233 9.25439L118.761 9.25439Z" fill="#384949"/>
<path d="M130.409 6.9004H124.084L124.084 9.25448L129.232 9.25448L129.232 11.2213C129.232 11.9641 128.943 12.6627 128.418 13.188C127.892 13.7133 127.194 14.0025 126.451 14.0026H124.084L124.084 16.3567L126.451 16.3567C127.823 16.3567 129.112 15.8225 130.082 14.8526C131.052 13.8827 131.586 12.593 131.586 11.2213V8.07755C131.586 7.42736 131.059 6.90035 130.409 6.9004Z" fill="#283939"/>
<path d="M122.907 35.3027L122.907 41.8597C122.907 42.5097 123.434 43.0367 124.084 43.0367C124.409 43.0367 124.703 42.905 124.916 42.692C125.129 42.4791 125.261 42.1847 125.261 41.8597L125.261 35.3027L122.907 35.3027Z" fill="#DCE1EB"/>
<path d="M124.916 42.692C125.129 42.479 125.261 42.1847 125.261 41.8597L125.261 35.3028L124.085 35.3028L124.085 43.0367C124.409 43.0366 124.703 42.9049 124.916 42.692Z" fill="#CDD2E1"/>
<path d="M12.9688 33.5486C9.20879 33.5486 6.46213 33.1352 4.72879 32.3086C3.02213 31.4819 2.16879 29.9352 2.16879 27.6686C2.16879 26.8686 2.30213 25.7352 2.56879 24.2686C4.40879 25.0419 6.59546 25.6686 9.12879 26.1486C11.6621 26.6019 13.6488 26.8286 15.0888 26.8286C16.1021 25.0419 17.5021 24.1486 19.2888 24.1486C20.4621 24.1486 21.3688 24.5219 22.0088 25.2686C22.6755 25.9886 23.0088 26.9219 23.0088 28.0686C23.0088 29.1886 22.5688 30.2419 21.6888 31.2286L20.2888 42.7086C20.0488 44.7619 19.5155 46.6019 18.6888 48.2286C17.8888 49.8552 16.9288 51.1352 15.8088 52.0686C13.5421 53.9619 11.2088 54.9086 8.80879 54.9086C6.40879 54.9086 4.48879 54.3752 3.04879 53.3086C1.60879 52.2686 0.888794 51.0019 0.888794 49.5086C0.888794 47.9886 1.32879 46.8019 2.20879 45.9486C3.08879 45.0686 4.11546 44.6286 5.28879 44.6286C6.48879 44.6286 7.59546 45.0419 8.60879 45.8686C9.62213 46.6952 10.3955 47.9352 10.9288 49.5886L11.9288 48.7886C11.2088 46.7886 10.8488 45.1886 10.8488 43.9886C10.8488 43.3219 11.1021 41.7886 11.6088 39.3886C12.1155 36.9886 12.5688 35.0419 12.9688 33.5486ZM31.9182 54.1086C29.5715 54.1086 27.9315 53.5352 26.9982 52.3886C26.0648 51.2419 25.5982 49.8019 25.5982 48.0686C25.5982 46.3086 25.8915 43.9086 26.4782 40.8686C27.0648 37.8286 27.3582 35.6286 27.3582 34.2686C27.3582 32.9086 27.0782 31.8419 26.5182 31.0686C28.9982 29.7619 31.0915 29.1086 32.7982 29.1086C33.8915 29.1086 34.6782 29.3352 35.1582 29.7886C35.6648 30.2152 35.9182 30.9219 35.9182 31.9086C35.9182 32.8952 35.5048 35.3219 34.6782 39.1886C33.8782 43.0286 33.4782 45.4019 33.4782 46.3086C33.4782 47.2152 33.7315 47.9352 34.2382 48.4686C34.7448 48.9752 35.4115 49.2286 36.2382 49.2286C37.0648 49.2286 37.9448 48.9086 38.8782 48.2686C39.8115 47.6019 40.5715 46.6686 41.1582 45.4686C41.5315 43.3086 42.2648 39.8952 43.3582 35.2286L40.9582 32.0286C43.6515 30.0819 46.2115 29.1086 48.6382 29.1086C49.8382 29.1086 50.6915 29.3352 51.1982 29.7886C51.7315 30.2152 51.9982 30.8819 51.9982 31.7886C51.9982 32.6686 51.5048 35.2152 50.5182 39.4286C49.5582 43.6419 49.0782 46.6419 49.0782 48.4286C49.0782 50.1886 49.4915 51.4286 50.3182 52.1486C48.8248 53.4552 47.2515 54.1086 45.5982 54.1086C43.9715 54.1086 42.7982 53.7486 42.0782 53.0286C41.3582 52.3086 40.9982 51.3619 40.9982 50.1886L40.5982 49.9886C39.7182 51.2686 38.4915 52.2819 36.9182 53.0286C35.3715 53.7486 33.7048 54.1086 31.9182 54.1086ZM60.345 54.1086C58.7717 54.1086 57.6117 53.6952 56.865 52.8686C56.1184 52.0419 55.745 50.9486 55.745 49.5886C55.745 48.2286 56.0117 46.0152 56.545 42.9486C57.105 39.8819 57.6784 37.0819 58.265 34.5486L56.185 31.3486C58.825 29.8552 61.265 29.1086 63.505 29.1086C65.745 29.1086 66.865 30.1219 66.865 32.1486C66.865 33.4819 66.5584 34.8419 65.945 36.2286L66.345 36.4286C69.1984 31.5486 72.825 29.1086 77.225 29.1086C80.4517 29.1086 82.065 30.7219 82.065 33.9486C82.065 35.3352 81.665 37.6819 80.865 40.9886C80.0917 44.2952 79.705 46.7886 79.705 48.4686C79.705 50.1486 79.985 51.3752 80.545 52.1486C79.1317 53.4552 77.6384 54.1086 76.065 54.1086C72.9984 54.1086 71.465 52.4552 71.465 49.1486C71.465 47.9219 71.865 45.8419 72.665 42.9086C73.465 39.9752 73.865 38.0686 73.865 37.1886C73.865 35.9886 73.4117 35.3886 72.505 35.3886C71.7584 35.3886 70.905 35.7219 69.945 36.3886C68.985 37.0286 68.0517 37.9086 67.145 39.0286C66.265 40.1219 65.5184 41.5219 64.905 43.2286C64.2917 44.9086 63.985 46.6286 63.985 48.3886C63.985 50.1219 64.265 51.3752 64.825 52.1486C63.4117 53.4552 61.9184 54.1086 60.345 54.1086ZM93.4175 41.9086C93.4175 43.2686 93.7909 44.3752 94.5375 45.2286C95.3109 46.0552 96.2575 46.4686 97.3775 46.4686C98.8975 46.4686 100.258 45.7486 101.458 44.3086C101.911 41.9352 102.498 38.1886 103.218 33.0686C100.231 33.0686 97.8442 33.9352 96.0575 35.6686C94.2975 37.4019 93.4175 39.4819 93.4175 41.9086ZM104.018 57.0686C102.764 58.7486 101.191 60.0686 99.2975 61.0286C97.4042 62.0152 95.4042 62.5086 93.2975 62.5086C91.2175 62.5086 89.5375 62.1086 88.2575 61.3086C87.0042 60.5352 86.3775 59.4819 86.3775 58.1486C86.3775 56.8152 86.9242 55.4152 88.0175 53.9486C89.2442 55.7619 91.0842 56.6686 93.5375 56.6686C95.1375 56.6686 96.6175 55.9752 97.9775 54.5886C99.3642 53.2286 100.284 51.2286 100.738 48.5886L100.338 48.3886C98.4442 51.1619 96.0175 52.5486 93.0575 52.5486C90.8175 52.5486 89.0575 51.6819 87.7775 49.9486C86.4975 48.2152 85.8575 45.9086 85.8575 43.0286C85.8575 40.2552 86.6175 37.7219 88.1375 35.4286C89.8709 32.7886 92.2842 30.9619 95.3775 29.9486C97.0842 29.3886 98.7109 29.1086 100.258 29.1086C101.804 29.1086 103.111 29.2152 104.178 29.4286C104.338 30.1486 104.431 30.8019 104.458 31.3886C105.711 30.5352 106.978 30.1086 108.258 30.1086C110.098 30.1086 111.018 31.0552 111.018 32.9486C111.018 34.8419 110.898 36.7886 110.658 38.7886C110.418 40.7619 110.044 42.8819 109.538 45.1486C109.031 47.4152 108.298 49.5619 107.338 51.5886C106.404 53.5886 105.298 55.4152 104.018 57.0686ZM150.223 54.1086C146.569 54.1086 143.743 53.1619 141.743 51.2686C139.769 49.3752 138.783 46.8152 138.783 43.5886C138.783 39.2952 140.249 35.8152 143.183 33.1486C146.143 30.4552 149.849 29.1086 154.303 29.1086C156.783 29.1086 158.663 29.6686 159.943 30.7886C161.223 31.8819 161.863 33.3352 161.863 35.1486C161.863 37.6286 160.649 39.6952 158.223 41.3486C155.823 42.9752 152.103 43.8019 147.063 43.8286C147.143 45.5352 147.529 46.8819 148.223 47.8686C148.916 48.8286 149.783 49.3086 150.823 49.3086C151.863 49.3086 152.756 48.9619 153.503 48.2686C154.276 47.5752 154.663 46.4419 154.663 44.8686C158.556 44.8686 160.503 45.7886 160.503 47.6286C160.503 49.2019 159.543 50.6819 157.623 52.0686C155.703 53.4286 153.236 54.1086 150.223 54.1086ZM153.623 33.7886C152.263 33.7886 151.009 34.4686 149.863 35.8286C148.743 37.1886 147.929 38.7886 147.423 40.6286C150.089 40.4152 152.089 39.8152 153.423 38.8286C154.783 37.8152 155.463 36.7486 155.463 35.6286C155.463 35.0952 155.289 34.6552 154.943 34.3086C154.623 33.9619 154.183 33.7886 153.623 33.7886Z" fill="white"/>
<g clip-path="url(#clip0_412_356)">
<path d="M3.92285 10.1002V24.8776H21.5119V10.1002H3.92285Z" fill="#A55A3C"/>
<path d="M21.5777 9.31555H20.7931C20.585 9.31555 20.3854 9.39822 20.2383 9.54537C20.0911 9.69252 20.0085 9.89209 20.0085 10.1002V22.6545C20.0085 22.8626 19.9258 23.0621 19.7787 23.2093C19.6315 23.3564 19.4319 23.4391 19.2238 23.4391H5.88491C5.67681 23.4391 5.47723 23.3564 5.33008 23.2093C5.18293 23.0621 5.10026 22.8626 5.10026 22.6545V10.1002C5.10026 9.89209 5.0176 9.69252 4.87045 9.54537C4.7233 9.39822 4.52372 9.31555 4.31562 9.31555H3.53098C3.32288 9.31555 3.1233 9.39822 2.97615 9.54537C2.82901 9.69252 2.74634 9.89209 2.74634 10.1002V25.0084C2.74634 25.2165 2.82901 25.4161 2.97615 25.5632C3.1233 25.7104 3.32288 25.793 3.53098 25.793H21.5777C21.7857 25.7924 21.9849 25.7096 22.1319 25.5625C22.2789 25.4155 22.3618 25.2163 22.3624 25.0084V10.1002C22.3624 9.89209 22.2797 9.69252 22.1326 9.54537C21.9854 9.39822 21.7859 9.31555 21.5777 9.31555Z" fill="#FFA50A"/>
<path d="M20.9032 9.31555H20.5169C20.4154 9.31555 20.3149 9.33554 20.2212 9.37437C20.1275 9.41321 20.0423 9.47012 19.9705 9.54187C19.8988 9.61362 19.8419 9.6988 19.8031 9.79255C19.7642 9.88629 19.7442 9.98677 19.7443 10.0882V22.4511C19.7443 22.6561 19.6629 22.8526 19.518 22.9975C19.3731 23.1424 19.1765 23.2238 18.9716 23.2238H5.83687C5.63195 23.2238 5.43542 23.1424 5.29053 22.9975C5.14563 22.8526 5.06423 22.6561 5.06423 22.4511V10.0882C5.06424 9.98677 5.04426 9.88629 5.00543 9.79255C4.9666 9.6988 4.90969 9.61362 4.83795 9.54187C4.7662 9.47012 4.68103 9.41321 4.58729 9.37437C4.49354 9.33554 4.39307 9.31555 4.2916 9.31555H3.51897C3.4175 9.31555 3.31703 9.33554 3.22329 9.37437C3.12955 9.41321 3.04437 9.47012 2.97262 9.54187C2.90088 9.61362 2.84397 9.6988 2.80514 9.79255C2.76632 9.88629 2.74633 9.98677 2.74634 10.0882V24.3828C2.74634 24.5878 2.82774 24.7843 2.97263 24.9292C3.11753 25.0741 3.31405 25.1555 3.51897 25.1555H20.9032C21.1079 25.1549 21.3041 25.0733 21.4489 24.9285C21.5936 24.7838 21.6752 24.5876 21.6758 24.3828V10.0882C21.6758 9.98676 21.6559 9.88628 21.617 9.79254C21.5782 9.6988 21.5213 9.61362 21.4495 9.54187C21.3778 9.47012 21.2926 9.4132 21.1989 9.37437C21.1051 9.33554 21.0047 9.31555 20.9032 9.31555Z" fill="#FEC502"/>
<path d="M22.3626 15.5927H2.74656C2.31321 15.5927 1.96191 15.9439 1.96191 16.3773V17.9466C1.96191 18.3799 2.31321 18.7312 2.74656 18.7312H22.3626C22.796 18.7312 23.1473 18.3799 23.1473 17.9466V16.3773C23.1473 15.9439 22.796 15.5927 22.3626 15.5927Z" fill="#F6F4E6"/>
<path d="M14.516 13.631H10.5928C10.3761 13.631 10.2004 13.8067 10.2004 14.0234V20.3005C10.2004 20.5172 10.3761 20.6928 10.5928 20.6928H14.516C14.7326 20.6928 14.9083 20.5172 14.9083 20.3005V14.0234C14.9083 13.8067 14.7326 13.631 14.516 13.631Z" fill="#FEC502"/>
<path d="M13.5348 16.3774C13.535 16.2005 13.4874 16.0269 13.3969 15.8749C13.3065 15.7229 13.1766 15.5982 13.0211 15.514C12.8655 15.4297 12.6901 15.3891 12.5134 15.3965C12.3367 15.4038 12.1652 15.4588 12.0172 15.5556C11.8692 15.6524 11.7501 15.7874 11.6726 15.9464C11.595 16.1053 11.5619 16.2823 11.5767 16.4586C11.5915 16.6348 11.6537 16.8038 11.7567 16.9476C11.8597 17.0913 11.9996 17.2046 12.1617 17.2754V18.7313C12.1617 18.8353 12.2031 18.9351 12.2766 19.0087C12.3502 19.0823 12.45 19.1236 12.554 19.1236C12.6581 19.1236 12.7579 19.0823 12.8315 19.0087C12.905 18.9351 12.9464 18.8353 12.9464 18.7313V17.2754C13.1212 17.1991 13.27 17.0736 13.3745 16.9141C13.479 16.7546 13.5348 16.5681 13.5348 16.3774Z" fill="#F6F4E6"/>
<path d="M13.7309 16.3773C13.7318 16.1614 13.6733 15.9493 13.5617 15.7643C13.4501 15.5794 13.2898 15.4287 13.0983 15.3288C12.9068 15.2289 12.6915 15.1837 12.476 15.198C12.2605 15.2123 12.0531 15.2856 11.8764 15.4099C11.6998 15.5342 11.5608 15.7048 11.4747 15.9028C11.3885 16.1009 11.3585 16.3188 11.3879 16.5328C11.4174 16.7468 11.5051 16.9485 11.6416 17.1159C11.7781 17.2833 11.958 17.41 12.1616 17.482V18.7313C12.1616 18.8353 12.2029 18.9351 12.2765 19.0087C12.3501 19.0823 12.4499 19.1236 12.5539 19.1236C12.658 19.1236 12.7577 19.0823 12.8313 19.0087C12.9049 18.9351 12.9462 18.8353 12.9462 18.7313V17.482C13.1751 17.4014 13.3733 17.252 13.5138 17.0542C13.6543 16.8564 13.7301 16.6199 13.7309 16.3773ZM12.5539 16.7697C12.4763 16.7697 12.4005 16.7467 12.3359 16.7035C12.2714 16.6604 12.2211 16.5992 12.1914 16.5275C12.1618 16.4558 12.154 16.3769 12.1691 16.3008C12.1843 16.2247 12.2216 16.1548 12.2765 16.0999C12.3314 16.0451 12.4013 16.0077 12.4774 15.9926C12.5535 15.9774 12.6324 15.9852 12.704 16.0149C12.7757 16.0446 12.837 16.0949 12.8801 16.1594C12.9232 16.2239 12.9462 16.2997 12.9462 16.3773C12.9462 16.4814 12.9048 16.5811 12.8312 16.6547C12.7577 16.7282 12.6579 16.7696 12.5539 16.7697Z" fill="#363838"/>
<path d="M5.99955 13.3537L8.35347 10.9998C8.42733 10.9277 8.52665 10.8876 8.62988 10.8882C8.73311 10.8888 8.83193 10.9301 8.90493 11.0031C8.97792 11.0761 9.01921 11.1749 9.01982 11.2781C9.02044 11.3814 8.98034 11.4807 8.90822 11.5545L6.55429 13.9085C6.48045 13.9807 6.3811 14.0209 6.27781 14.0203C6.17453 14.0197 6.07563 13.9785 6.00259 13.9054C5.92956 13.8324 5.88827 13.7335 5.8877 13.6302C5.88713 13.5269 5.92732 13.4276 5.99955 13.3537Z" fill="#363838"/>
<path d="M8.74564 12.569L9.53028 11.7844C9.60414 11.7123 9.70345 11.6722 9.80668 11.6728C9.90991 11.6734 10.0087 11.7147 10.0817 11.7877C10.1547 11.8607 10.196 11.9595 10.1966 12.0627C10.1972 12.166 10.1571 12.2653 10.085 12.3391L9.30038 13.1238C9.22654 13.196 9.1272 13.2362 9.02391 13.2356C8.92062 13.2351 8.82172 13.1938 8.74869 13.1207C8.67565 13.0477 8.63437 12.9488 8.6338 12.8455C8.63322 12.7422 8.67341 12.6429 8.74564 12.569Z" fill="#363838"/>
<path d="M2.74584 11.6694C2.82343 11.6694 2.89928 11.6924 2.9638 11.7356C3.02832 11.7787 3.0786 11.8399 3.10829 11.9116C3.13799 11.9833 3.14576 12.0622 3.13062 12.1383C3.11548 12.2144 3.07812 12.2843 3.02325 12.3392C2.96838 12.394 2.89848 12.4314 2.82237 12.4465C2.74627 12.4617 2.66739 12.4539 2.5957 12.4242C2.52401 12.3945 2.46274 12.3442 2.41963 12.2797C2.37652 12.2152 2.35352 12.1393 2.35352 12.0618C2.35352 11.9577 2.39485 11.8579 2.46842 11.7843C2.542 11.7108 2.64179 11.6694 2.74584 11.6694Z" fill="#363838"/>
<path d="M22.7547 15.2726V10.1002C22.7543 9.78814 22.6302 9.48897 22.4096 9.26832C22.1889 9.04767 21.8898 8.92356 21.5777 8.92322H20.7931C20.5505 8.92396 20.314 8.99979 20.1162 9.14028C19.9185 9.28077 19.769 9.47903 19.6884 9.70786H5.42025C5.33965 9.47903 5.1902 9.28077 4.99241 9.14028C4.79462 8.99979 4.55819 8.92396 4.31558 8.92322H3.53094C3.2189 8.92356 2.91973 9.04767 2.69908 9.26832C2.47843 9.48897 2.35432 9.78814 2.35398 10.1002V10.8848C2.35398 10.9889 2.39531 11.0887 2.46889 11.1622C2.54246 11.2358 2.64225 11.2771 2.7463 11.2771C2.85035 11.2771 2.95014 11.2358 3.02371 11.1622C3.09729 11.0887 3.13862 10.9889 3.13862 10.8848V10.1002C3.13869 9.99615 3.18005 9.8964 3.25361 9.82284C3.32716 9.74929 3.42691 9.70793 3.53094 9.70786H4.31558C4.41961 9.70793 4.51936 9.74929 4.59292 9.82284C4.66648 9.8964 4.70784 9.99615 4.7079 10.1002V15.2004H3.13862V13.2387C3.13862 13.1347 3.09729 13.0349 3.02371 12.9613C2.95014 12.8878 2.85035 12.8464 2.7463 12.8464C2.64225 12.8464 2.54246 12.8878 2.46889 12.9613C2.39531 13.0349 2.35398 13.1347 2.35398 13.2387V15.2726C2.12515 15.3533 1.92688 15.5027 1.78639 15.7005C1.6459 15.8983 1.57008 16.1347 1.56934 16.3773V17.9466C1.57008 18.1892 1.64591 18.4256 1.7864 18.6234C1.92689 18.8212 2.12515 18.9707 2.35398 19.0513V25.0084C2.35432 25.3204 2.47843 25.6196 2.69908 25.8402C2.91973 26.0609 3.2189 26.185 3.53094 26.1853H21.5777C21.8898 26.185 22.1889 26.0609 22.4096 25.8402C22.6302 25.6196 22.7543 25.3204 22.7547 25.0084V19.0513C22.9835 18.9707 23.1818 18.8212 23.3223 18.6234C23.4627 18.4256 23.5386 18.1892 23.5393 17.9466V16.3773C23.5386 16.1347 23.4627 15.8983 23.3223 15.7005C23.1818 15.5027 22.9835 15.3533 22.7547 15.2726ZM20.7931 9.70786H21.5777C21.6817 9.70793 21.7815 9.74929 21.855 9.82284C21.9286 9.8964 21.97 9.99615 21.97 10.1002V15.2004H20.4007V10.1002C20.4008 9.99615 20.4422 9.8964 20.5157 9.82284C20.5893 9.74929 20.689 9.70793 20.7931 9.70786ZM5.49255 10.4925H19.6161V15.2004H15.3006V14.0234C15.3003 13.8154 15.2176 13.616 15.0705 13.4689C14.9234 13.3218 14.7239 13.239 14.5159 13.2387H10.5927C10.3847 13.239 10.1853 13.3218 10.0382 13.4689C9.8911 13.616 9.80835 13.8154 9.80808 14.0234V15.2004H5.49255V10.4925ZM5.49255 19.1236H9.80808V20.3005C9.80835 20.5085 9.8911 20.708 10.0382 20.8551C10.1853 21.0021 10.3847 21.0849 10.5927 21.0852H14.5159C14.7239 21.0849 14.9234 21.0021 15.0705 20.8551C15.2176 20.708 15.3003 20.5085 15.3006 20.3005V19.1236H19.6161V22.6545C19.616 22.7585 19.5747 22.8582 19.5011 22.9318C19.4276 23.0054 19.3278 23.0467 19.2238 23.0468H5.88487C5.78084 23.0467 5.68109 23.0054 5.60753 22.9318C5.53397 22.8582 5.49262 22.7585 5.49255 22.6545V19.1236ZM14.5161 15.5936L14.5165 18.7284L14.5159 18.7312L14.5165 18.7341L14.5167 20.3005H10.5927V14.0234H14.5159L14.5161 15.5917L14.5159 15.5927L14.5161 15.5936ZM2.35398 16.3773C2.35405 16.2733 2.3954 16.1735 2.46896 16.1C2.54252 16.0264 2.64227 15.9851 2.7463 15.985H9.80808V18.3389H2.7463C2.64227 18.3389 2.54252 18.2975 2.46896 18.2239C2.3954 18.1504 2.35405 18.0506 2.35398 17.9466V16.3773ZM21.5777 25.4007H3.53094C3.42691 25.4006 3.32716 25.3593 3.25361 25.2857C3.18005 25.2122 3.13869 25.1124 3.13862 25.0084V19.1236H4.7079V22.6545C4.70825 22.9665 4.83236 23.2657 5.05301 23.4863C5.27366 23.707 5.57282 23.8311 5.88487 23.8314H19.2238C19.5358 23.8311 19.835 23.707 20.0556 23.4863C20.2763 23.2657 20.4004 22.9665 20.4007 22.6545V19.1236H21.97V25.0084C21.97 25.1124 21.9286 25.2122 21.855 25.2857C21.7815 25.3593 21.6817 25.4006 21.5777 25.4007ZM22.7547 17.9466C22.7546 18.0506 22.7132 18.1504 22.6397 18.2239C22.5661 18.2975 22.4664 18.3389 22.3624 18.3389H15.3006V15.985H22.3624C22.4664 15.9851 22.5661 16.0264 22.6397 16.1C22.7132 16.1735 22.7546 16.2733 22.7547 16.3773V17.9466Z" fill="#363838"/>
<g clip-path="url(#clip1_412_356)">
<path d="M1.78796 27.1921L1.80505 27.1607C2.72986 25.5147 3.21119 23.7026 3.21153 21.8656V20.6011L3.87705 21.7746C4.60955 23.0669 4.99093 24.4918 4.99099 25.9366L5.7679 24.7032C6.4255 23.6596 6.77055 22.4854 6.77044 21.2916C6.77042 20.0183 6.378 18.769 5.63515 17.6772L4.63509 16.2071C5.81981 16.777 6.80856 17.6178 7.49744 18.6412C8.18632 19.6646 8.54987 20.8327 8.5499 22.0228V25.6228L11.397 18.7179V21.6343C11.397 23.0188 11.7626 24.3844 12.4647 25.6228L13.1765 20.9149L13.263 21.0926C13.9104 22.4249 14.2442 23.8594 14.2442 25.3089L14.7025 24.744C15.5619 23.6829 16.0238 22.4115 16.0236 21.1076C16.0237 20.3573 15.8707 19.6132 15.572 18.9106L14.9559 17.4625C16.7789 19.0702 17.803 21.2507 17.8031 23.5243V24.3674L18.8376 17.7528C18.9454 17.0635 19.3325 16.4318 19.9274 15.9746C20.5223 15.5174 21.2847 15.2655 22.0738 15.2655C21.6318 15.5579 21.273 15.9369 21.0259 16.3727C20.7788 16.8086 20.6502 17.2891 20.6502 17.7764V24.6812L22.0738 21.5426L23.1414 27.1921H1.78796Z" fill="#428E16"/>
<path d="M13.1053 27.1921H23.1415L22.4802 23.6935C22.0171 24.4873 21.3783 25.1911 20.6015 25.7634L19.9385 26.2505L19.5826 19.0318L18.9857 22.0134C18.6728 23.5775 18.1566 25.1045 17.4472 26.5644L16.7354 21.8565V22.2353C16.7355 23.1986 16.4434 24.1443 15.8895 24.9746C15.3355 25.8048 14.5399 26.4892 13.5851 26.957L13.1053 27.1921Z" fill="#27630B"/>
<path d="M10.7244 22.794L10.6853 22.4842L8.54995 25.6228L7.48227 19.9734V21.4749C7.48219 21.9376 7.43886 22.3994 7.35273 22.8558C7.20265 23.6494 6.91895 24.4186 6.51104 25.1382L5.34692 27.1921H12.2733C11.4454 25.826 10.9197 24.3334 10.7244 22.794Z" fill="#27630B"/>
<path d="M2.76099 27.1921H4.78957L3.56744 23.4258C3.5669 24.7145 3.29339 25.9919 2.76099 27.1921Z" fill="#27630B"/>
<g clip-path="url(#clip2_412_356)">
<path d="M17.7849 24.2999L14.9727 21.7677L14.0605 22.7807L16.8728 25.3129L17.7849 24.2999Z" fill="#6E6E6E"/>
<path d="M14.0605 22.7803L12.9255 24.041C12.2779 24.7602 12.4184 26.1807 12.5545 26.8951C12.8539 26.9665 12.7671 26.5887 13.1075 26.8951C13.1822 26.6989 12.4704 26.6389 12.5545 26.8951C13.2706 26.9395 15.098 27.2757 15.7338 26.5696L16.8689 25.309L14.0605 22.7803Z" fill="#A8A89E"/>
<path d="M20.5969 17.6613L14.5573 24.369C14.3334 24.6177 14.2998 24.9524 14.4823 25.1167C14.6647 25.281 14.9942 25.2126 15.2181 24.964L21.2577 18.2563L20.5969 17.6613Z" fill="#994C14"/>
<rect x="20.7771" y="15.6266" width="3.27373" height="1.63262" transform="rotate(42 20.7771 15.6266)" fill="#757575"/>
</g>
</g>
</g>
<defs>
<clipPath id="clip0_412_356">
<rect width="25.1086" height="25.1086" fill="white" transform="translate(0 5)"/>
</clipPath>
<clipPath id="clip1_412_356">
<rect width="22.777" height="20.0868" fill="white" transform="translate(1.07617 11.1854)"/>
</clipPath>
<clipPath id="clip2_412_356">
<rect width="19.1901" height="13.6304" fill="white" transform="translate(8.60876 14.4136)"/>
</clipPath>
</defs>
</svg>
