<svg width="22" height="22" viewBox="0 0 22 22" fill="none" xmlns="http://www.w3.org/2000/svg">
<path d="M17.9667 18.875L12.1917 13.3625C11.7333 13.7125 11.2062 13.9896 10.6104 14.1937C10.0146 14.3979 9.38056 14.5 8.70833 14.5C7.04306 14.5 5.63383 13.9493 4.48067 12.848C3.3275 11.7467 2.75061 10.4015 2.75 8.8125C2.75 7.22292 3.32689 5.87775 4.48067 4.777C5.63444 3.67625 7.04367 3.12558 8.70833 3.125C10.3736 3.125 11.7831 3.67567 12.9369 4.777C14.0907 5.87833 14.6673 7.2235 14.6667 8.8125C14.6667 9.45417 14.5597 10.0594 14.3458 10.6281C14.1319 11.1969 13.8417 11.7 13.475 12.1375L19.25 17.65L17.9667 18.875ZM8.70833 12.75C9.85417 12.75 10.8283 12.3673 11.6307 11.602C12.4331 10.8367 12.8339 9.90683 12.8333 8.8125C12.8333 7.71875 12.4324 6.78921 11.6307 6.02387C10.8289 5.25854 9.85478 4.87558 8.70833 4.875C7.5625 4.875 6.58869 5.25796 5.78692 6.02387C4.98514 6.78979 4.58394 7.71933 4.58333 8.8125C4.58333 9.90625 4.98453 10.8361 5.78692 11.602C6.58931 12.3679 7.56311 12.7506 8.70833 12.75Z" fill="white"/>
</svg>
