<svg width="28" height="28" viewBox="0 0 28 28" fill="none" xmlns="http://www.w3.org/2000/svg">
<path d="M14 0.666687C15.7681 0.666687 17.4638 1.36907 18.714 2.61931C19.9643 3.86955 20.6667 5.56524 20.6667 7.33335C20.6667 9.10146 19.9643 10.7972 18.714 12.0474C17.4638 13.2976 15.7681 14 14 14C12.2319 14 10.5362 13.2976 9.28595 12.0474C8.03571 10.7972 7.33333 9.10146 7.33333 7.33335C7.33333 5.56524 8.03571 3.86955 9.28595 2.61931C10.5362 1.36907 12.2319 0.666687 14 0.666687ZM14 17.3334C21.3667 17.3334 27.3333 20.3167 27.3333 24V27.3334H0.666664V24C0.666664 20.3167 6.63333 17.3334 14 17.3334Z" fill="#E43801"/>
</svg>
