<svg width="28" height="22" viewBox="0 0 28 22" fill="none" xmlns="http://www.w3.org/2000/svg">
<mask id="path-1-inside-1_553_7203" fill="white">
<path d="M5.62618 20.3757C5.62618 20.6243 5.52741 20.8628 5.3516 21.0386C5.17578 21.2144 4.93732 21.3132 4.68868 21.3132C4.44004 21.3132 4.20159 21.2144 4.02577 21.0386C3.84996 20.8628 3.75118 20.6243 3.75118 20.3757V3.88882L1.60243 6.03944C1.51527 6.12661 1.41179 6.19575 1.2979 6.24292C1.18402 6.2901 1.06195 6.31438 0.938684 6.31438C0.815414 6.31438 0.693352 6.2901 0.579465 6.24292C0.465579 6.19575 0.362099 6.12661 0.274934 6.03944C0.187769 5.95228 0.118626 5.8488 0.0714531 5.73491C0.0242798 5.62103 -1.83686e-09 5.49896 0 5.37569C1.83686e-09 5.25242 0.0242798 5.13036 0.0714531 5.01647C0.118626 4.90259 0.187769 4.79911 0.274934 4.71194L4.02493 0.963818L4.03806 0.950693C4.21431 0.779512 4.45093 0.684696 4.69662 0.686802C4.94231 0.688908 5.17727 0.787765 5.35056 0.961943L9.10056 4.71194C9.18773 4.79899 9.25689 4.90234 9.30411 5.01612C9.35133 5.12989 9.37568 5.25185 9.37577 5.37503C9.37586 5.49821 9.35168 5.62021 9.30462 5.73405C9.25756 5.84789 9.18854 5.95134 9.1015 6.03851C9.01445 6.12567 8.9111 6.19484 8.79732 6.24206C8.68355 6.28928 8.56159 6.31363 8.43841 6.31371C8.31523 6.3138 8.19323 6.28962 8.07939 6.24257C7.96556 6.19551 7.8621 6.12649 7.77493 6.03944L5.62618 3.88882V20.3757ZM12.1887 3.50069C12.1887 3.25205 12.2875 3.0136 12.4633 2.83778C12.6391 2.66197 12.8775 2.56319 13.1262 2.56319H26.2512C26.4998 2.56319 26.7383 2.66197 26.9141 2.83778C27.0899 3.0136 27.1887 3.25205 27.1887 3.50069C27.1887 3.74933 27.0899 3.98779 26.9141 4.16361C26.7383 4.33942 26.4998 4.43819 26.2512 4.43819H13.1262C12.8775 4.43819 12.6391 4.33942 12.4633 4.16361C12.2875 3.98779 12.1887 3.74933 12.1887 3.50069ZM13.1262 8.18819C12.8775 8.18819 12.6391 8.28696 12.4633 8.46278C12.2875 8.6386 12.1887 8.87705 12.1887 9.12569C12.1887 9.37433 12.2875 9.61279 12.4633 9.7886C12.6391 9.96442 12.8775 10.0632 13.1262 10.0632H22.5012C22.7498 10.0632 22.9883 9.96442 23.1641 9.7886C23.3399 9.61279 23.4387 9.37433 23.4387 9.12569C23.4387 8.87705 23.3399 8.6386 23.1641 8.46278C22.9883 8.28696 22.7498 8.18819 22.5012 8.18819H13.1262ZM13.1262 13.8132C12.8775 13.8132 12.6391 13.912 12.4633 14.0878C12.2875 14.2636 12.1887 14.5021 12.1887 14.7507C12.1887 14.9993 12.2875 15.2378 12.4633 15.4136C12.6391 15.5894 12.8775 15.6882 13.1262 15.6882H18.7512C18.9998 15.6882 19.2383 15.5894 19.4141 15.4136C19.5899 15.2378 19.6887 14.9993 19.6887 14.7507C19.6887 14.5021 19.5899 14.2636 19.4141 14.0878C19.2383 13.912 18.9998 13.8132 18.7512 13.8132H13.1262ZM13.1262 19.4382C12.8775 19.4382 12.6391 19.537 12.4633 19.7128C12.2875 19.8886 12.1887 20.1271 12.1887 20.3757C12.1887 20.6243 12.2875 20.8628 12.4633 21.0386C12.6391 21.2144 12.8775 21.3132 13.1262 21.3132H15.0012C15.2498 21.3132 15.4883 21.2144 15.6641 21.0386C15.8399 20.8628 15.9387 20.6243 15.9387 20.3757C15.9387 20.1271 15.8399 19.8886 15.6641 19.7128C15.4883 19.537 15.2498 19.4382 15.0012 19.4382H13.1262Z"/>
</mask>
<path d="M3.75118 3.88882H6.75118V-3.35829L1.62894 1.76842L3.75118 3.88882ZM1.60243 6.03944L3.72375 8.16076L3.72468 8.15984L1.60243 6.03944ZM0 5.37569H-3H0ZM0.274934 4.71194L-1.84586 2.59009L-1.84639 2.59062L0.274934 4.71194ZM4.02493 0.963818L6.14572 3.08567L6.14622 3.08517L4.02493 0.963818ZM4.03806 0.950693L1.94792 -1.20135L1.93223 -1.18612L1.91678 -1.17066L4.03806 0.950693ZM5.35056 0.961943L3.22383 3.07785L3.22924 3.08326L5.35056 0.961943ZM9.10056 4.71194L6.97924 6.83326L6.98074 6.83476L9.10056 4.71194ZM7.77493 6.03944L5.65269 8.15984L5.65511 8.16226L7.77493 6.03944ZM5.62618 3.88882L7.74843 1.76842L2.62618 -3.35829V3.88882H5.62618ZM13.1262 2.56319V5.56319V2.56319ZM2.62618 20.3757C2.62618 19.8287 2.84348 19.3041 3.23028 18.9173L7.47292 23.1599C8.21134 22.4215 8.62618 21.42 8.62618 20.3757H2.62618ZM3.23028 18.9173C3.61707 18.5305 4.14168 18.3132 4.68868 18.3132V24.3132C5.73297 24.3132 6.73449 23.8984 7.47292 23.1599L3.23028 18.9173ZM4.68868 18.3132C5.23569 18.3132 5.76029 18.5305 6.14709 18.9173L1.90445 23.1599C2.64288 23.8984 3.6444 24.3132 4.68868 24.3132V18.3132ZM6.14709 18.9173C6.53389 19.3041 6.75118 19.8287 6.75118 20.3757H0.751184C0.751184 21.42 1.16603 22.4215 1.90445 23.1599L6.14709 18.9173ZM6.75118 20.3757V3.88882H0.751184V20.3757H6.75118ZM1.62894 1.76842L-0.519811 3.91905L3.72468 8.15984L5.87343 6.00921L1.62894 1.76842ZM-0.518886 3.91812C-0.327477 3.72671 -0.100239 3.57488 0.149853 3.47129L2.44595 9.01456C2.92382 8.81662 3.35802 8.5265 3.72375 8.16076L-0.518886 3.91812ZM0.149853 3.47129C0.399942 3.3677 0.667987 3.31438 0.938684 3.31438L0.938684 9.31438C1.45592 9.31438 1.96809 9.2125 2.44595 9.01456L0.149853 3.47129ZM0.938684 3.31438C1.20938 3.31438 1.47743 3.3677 1.72752 3.47129L-0.568585 9.01456C-0.0907229 9.2125 0.421448 9.31438 0.938684 9.31438L0.938684 3.31438ZM1.72752 3.47129C1.97761 3.57488 2.20485 3.72671 2.39625 3.91812L-1.84639 8.16076C-1.48065 8.5265 -1.04645 8.81662 -0.568585 9.01456L1.72752 3.47129ZM2.39625 3.91812C2.58766 4.10953 2.7395 4.33677 2.84309 4.58686L-2.70019 6.88296C-2.50225 7.36083 -2.21213 7.79502 -1.84639 8.16076L2.39625 3.91812ZM2.84309 4.58686C2.94668 4.83695 3 5.105 3 5.37569H-3C-3 5.89293 -2.89812 6.4051 -2.70019 6.88296L2.84309 4.58686ZM3 5.37569C3 5.64639 2.94668 5.91443 2.84309 6.16452L-2.70019 3.86842C-2.89812 4.34629 -3 4.85846 -3 5.37569H3ZM2.84309 6.16452C2.7395 6.41462 2.58766 6.64185 2.39625 6.83326L-1.84639 2.59062C-2.21212 2.95636 -2.50225 3.39056 -2.70019 3.86842L2.84309 6.16452ZM2.39572 6.83379L6.14572 3.08567L1.90414 -1.15803L-1.84586 2.59009L2.39572 6.83379ZM6.14622 3.08517L6.15934 3.07205L1.91678 -1.17066L1.90365 -1.15754L6.14622 3.08517ZM6.1282 3.10274C5.73818 3.48154 5.21458 3.69135 4.67091 3.68669L4.72233 -2.31309C3.68728 -2.32196 2.69044 -1.92252 1.94792 -1.20135L6.1282 3.10274ZM4.67091 3.68669C4.12723 3.68203 3.6073 3.46327 3.22383 3.07784L7.47728 -1.15396C6.74723 -1.88774 5.75739 -2.30422 4.72233 -2.31309L4.67091 3.68669ZM3.22924 3.08326L6.97924 6.83326L11.2219 2.59062L7.47188 -1.15938L3.22924 3.08326ZM6.98074 6.83476C6.78913 6.64342 6.63708 6.41621 6.53329 6.16612L12.0749 3.86611C11.8767 3.38847 11.5863 2.95455 11.2204 2.58912L6.98074 6.83476ZM6.53329 6.16612C6.42949 5.91604 6.37596 5.64794 6.37577 5.37715L12.3758 5.37291C12.3754 4.85575 12.2732 4.34374 12.0749 3.86611L6.53329 6.16612ZM6.37577 5.37715C6.37558 5.10636 6.42872 4.83819 6.53217 4.58795L12.0771 6.88014C12.2746 6.40222 12.3761 5.89006 12.3758 5.37291L6.37577 5.37715ZM6.53217 4.58795C6.63562 4.3377 6.78735 4.11029 6.97868 3.91868L11.2243 8.15833C11.5897 7.7924 11.8795 7.35807 12.0771 6.88014L6.53217 4.58795ZM6.97868 3.91868C7.17001 3.72708 7.39721 3.57503 7.64732 3.47123L9.94733 9.01289C10.425 8.81464 10.8589 8.52426 11.2243 8.15833L6.97868 3.91868ZM7.64732 3.47123C7.89742 3.36743 8.16551 3.31391 8.43629 3.31372L8.44053 9.31371C8.95768 9.31335 9.46969 9.21113 9.94733 9.01289L7.64732 3.47123ZM8.43629 3.31372C8.70708 3.31352 8.97525 3.36667 9.22549 3.47012L6.9333 9.01501C7.41122 9.21258 7.92338 9.31408 8.44053 9.31371L8.43629 3.31372ZM9.22549 3.47012C9.47572 3.57356 9.70314 3.72528 9.89476 3.91662L5.65511 8.16226C6.02106 8.52769 6.45539 8.81745 6.9333 9.01501L9.22549 3.47012ZM9.89718 3.91905L7.74843 1.76842L3.50394 6.00921L5.65269 8.15984L9.89718 3.91905ZM2.62618 3.88882V20.3757H8.62618V3.88882H2.62618ZM15.1887 3.50069C15.1887 4.0477 14.9714 4.57231 14.5846 4.9591L10.342 0.71646C9.60353 1.45488 9.18868 2.4564 9.18868 3.50069H15.1887ZM14.5846 4.9591C14.1978 5.34589 13.6732 5.56319 13.1262 5.56319V-0.436807C12.0819 -0.436807 11.0804 -0.0219626 10.342 0.71646L14.5846 4.9591ZM13.1262 5.56319H26.2512V-0.436807H13.1262V5.56319ZM26.2512 5.56319C25.7042 5.56319 25.1796 5.3459 24.7928 4.9591L29.0354 0.71646C28.297 -0.0219647 27.2955 -0.436807 26.2512 -0.436807V5.56319ZM24.7928 4.9591C24.406 4.5723 24.1887 4.0477 24.1887 3.50069H30.1887C30.1887 2.45641 29.7738 1.45489 29.0354 0.71646L24.7928 4.9591ZM24.1887 3.50069C24.1887 2.95369 24.406 2.42908 24.7928 2.04229L29.0354 6.28493C29.7738 5.5465 30.1887 4.54498 30.1887 3.50069H24.1887ZM24.7928 2.04229C25.1796 1.65549 25.7042 1.43819 26.2512 1.43819V7.43819C27.2955 7.43819 28.297 7.02335 29.0354 6.28493L24.7928 2.04229ZM26.2512 1.43819H13.1262V7.43819H26.2512V1.43819ZM13.1262 1.43819C13.6732 1.43819 14.1978 1.65549 14.5846 2.04229L10.342 6.28493C11.0804 7.02335 12.0819 7.43819 13.1262 7.43819V1.43819ZM14.5846 2.04229C14.9714 2.42908 15.1887 2.95368 15.1887 3.50069H9.18868C9.18868 4.54499 9.60353 5.5465 10.342 6.28493L14.5846 2.04229ZM13.1262 5.18819C12.0819 5.18819 11.0804 5.60304 10.342 6.34146L14.5846 10.5841C14.1978 10.9709 13.6732 11.1882 13.1262 11.1882V5.18819ZM10.342 6.34146C9.60353 7.07988 9.18868 8.0814 9.18868 9.12569H15.1887C15.1887 9.6727 14.9714 10.1973 14.5846 10.5841L10.342 6.34146ZM9.18868 9.12569C9.18868 10.17 9.60353 11.1715 10.342 11.9099L14.5846 7.66728C14.9714 8.05408 15.1887 8.57868 15.1887 9.12569H9.18868ZM10.342 11.9099C11.0804 12.6483 12.0819 13.0632 13.1262 13.0632V7.06319C13.6732 7.06319 14.1978 7.28049 14.5846 7.66728L10.342 11.9099ZM13.1262 13.0632H22.5012V7.06319H13.1262V13.0632ZM22.5012 13.0632C23.5455 13.0632 24.547 12.6484 25.2854 11.9099L21.0428 7.66728C21.4296 7.28049 21.9542 7.06319 22.5012 7.06319V13.0632ZM25.2854 11.9099C26.0238 11.1715 26.4387 10.17 26.4387 9.12569H20.4387C20.4387 8.57869 20.656 8.05408 21.0428 7.66728L25.2854 11.9099ZM26.4387 9.12569C26.4387 8.08141 26.0238 7.07989 25.2854 6.34146L21.0428 10.5841C20.656 10.1973 20.4387 9.6727 20.4387 9.12569H26.4387ZM25.2854 6.34146C24.547 5.60303 23.5455 5.18819 22.5012 5.18819V11.1882C21.9542 11.1882 21.4296 10.9709 21.0428 10.5841L25.2854 6.34146ZM22.5012 5.18819H13.1262V11.1882H22.5012V5.18819ZM13.1262 10.8132C12.0819 10.8132 11.0804 11.228 10.342 11.9665L14.5846 16.2091C14.1978 16.5959 13.6732 16.8132 13.1262 16.8132V10.8132ZM10.342 11.9665C9.60353 12.7049 9.18868 13.7064 9.18868 14.7507H15.1887C15.1887 15.2977 14.9714 15.8223 14.5846 16.2091L10.342 11.9665ZM9.18868 14.7507C9.18868 15.795 9.60353 16.7965 10.342 17.5349L14.5846 13.2923C14.9714 13.6791 15.1887 14.2037 15.1887 14.7507H9.18868ZM10.342 17.5349C11.0804 18.2734 12.0819 18.6882 13.1262 18.6882V12.6882C13.6732 12.6882 14.1978 12.9055 14.5846 13.2923L10.342 17.5349ZM13.1262 18.6882H18.7512V12.6882H13.1262V18.6882ZM18.7512 18.6882C19.7955 18.6882 20.797 18.2734 21.5354 17.5349L17.2928 13.2923C17.6796 12.9055 18.2042 12.6882 18.7512 12.6882V18.6882ZM21.5354 17.5349C22.2738 16.7965 22.6887 15.795 22.6887 14.7507H16.6887C16.6887 14.2037 16.906 13.6791 17.2928 13.2923L21.5354 17.5349ZM22.6887 14.7507C22.6887 13.7064 22.2738 12.7049 21.5354 11.9665L17.2928 16.2091C16.906 15.8223 16.6887 15.2977 16.6887 14.7507H22.6887ZM21.5354 11.9665C20.797 11.228 19.7955 10.8132 18.7512 10.8132V16.8132C18.2042 16.8132 17.6796 16.5959 17.2928 16.2091L21.5354 11.9665ZM18.7512 10.8132H13.1262V16.8132H18.7512V10.8132ZM13.1262 16.4382C12.0819 16.4382 11.0804 16.853 10.342 17.5915L14.5846 21.8341C14.1978 22.2209 13.6732 22.4382 13.1262 22.4382V16.4382ZM10.342 17.5915C9.60353 18.3299 9.18868 19.3314 9.18868 20.3757H15.1887C15.1887 20.9227 14.9714 21.4473 14.5846 21.8341L10.342 17.5915ZM9.18868 20.3757C9.18868 21.42 9.60353 22.4215 10.342 23.1599L14.5846 18.9173C14.9714 19.3041 15.1887 19.8287 15.1887 20.3757H9.18868ZM10.342 23.1599C11.0804 23.8984 12.0819 24.3132 13.1262 24.3132V18.3132C13.6732 18.3132 14.1978 18.5305 14.5846 18.9173L10.342 23.1599ZM13.1262 24.3132H15.0012V18.3132H13.1262V24.3132ZM15.0012 24.3132C16.0455 24.3132 17.047 23.8984 17.7854 23.1599L13.5428 18.9173C13.9296 18.5305 14.4542 18.3132 15.0012 18.3132V24.3132ZM17.7854 23.1599C18.5238 22.4215 18.9387 21.42 18.9387 20.3757H12.9387C12.9387 19.8287 13.156 19.3041 13.5428 18.9173L17.7854 23.1599ZM18.9387 20.3757C18.9387 19.3314 18.5238 18.3299 17.7854 17.5915L13.5428 21.8341C13.156 21.4473 12.9387 20.9227 12.9387 20.3757H18.9387ZM17.7854 17.5915C17.047 16.853 16.0455 16.4382 15.0012 16.4382V22.4382C14.4542 22.4382 13.9296 22.2209 13.5428 21.8341L17.7854 17.5915ZM15.0012 16.4382H13.1262V22.4382H15.0012V16.4382Z" fill="white" mask="url(#path-1-inside-1_553_7203)"/>
</svg>
