<svg width="34" height="34" viewBox="0 0 34 34" fill="none" xmlns="http://www.w3.org/2000/svg">
<path d="M17.0001 5.66667C18.503 5.66667 19.9443 6.26369 21.007 7.3264C22.0697 8.38911 22.6667 9.83044 22.6667 11.3333C22.6667 12.8362 22.0697 14.2776 21.007 15.3403C19.9443 16.403 18.503 17 17.0001 17C15.4972 17 14.0558 16.403 12.9931 15.3403C11.9304 14.2776 11.3334 12.8362 11.3334 11.3333C11.3334 9.83044 11.9304 8.38911 12.9931 7.3264C14.0558 6.26369 15.4972 5.66667 17.0001 5.66667ZM17.0001 19.8333C23.2617 19.8333 28.3334 22.3692 28.3334 25.5V28.3333H5.66675V25.5C5.66675 22.3692 10.7384 19.8333 17.0001 19.8333Z" fill="white"/>
</svg>
